<?xml version="1.0" standalone="no"?>
<!DOCTYPE svg PUBLIC "-//W3C//DTD SVG 20010904//EN"
 "http://www.w3.org/TR/2001/REC-SVG-20010904/DTD/svg10.dtd">
<svg version="1.0" xmlns="http://www.w3.org/2000/svg"
 width="1280.000000pt" height="1280.000000pt" viewBox="0 0 1280.000000 1280.000000"
 preserveAspectRatio="xMidYMid meet">
<metadata>
Created by potrace 1.15, written by Peter Selinger 2001-2017
</metadata>
<g transform="translate(0.000000,1280.000000) scale(0.100000,-0.100000)"
fill="#3f51b5" stroke="none">
<path d="M10490 10928 c-10 -4 -21 -11 -25 -17 -3 -6 -23 -11 -43 -11 -58 -1
-94 -21 -107 -60 -10 -29 -18 -36 -46 -41 -38 -6 -90 -31 -106 -51 -6 -7 -14
-27 -18 -45 -5 -25 -14 -34 -40 -43 -61 -20 -82 -45 -90 -102 -6 -45 -13 -58
-46 -86 -35 -30 -39 -38 -39 -81 0 -41 -4 -50 -30 -70 -17 -12 -43 -48 -58
-79 -15 -31 -32 -63 -39 -70 -6 -6 -15 -21 -18 -32 -4 -11 -23 -31 -43 -45
-20 -14 -30 -25 -22 -25 22 0 -41 -60 -64 -61 -12 0 -16 -3 -9 -5 18 -8 -56
-69 -101 -84 -26 -8 -42 -21 -49 -39 -7 -18 -29 -35 -74 -56 -35 -16 -56 -32
-48 -33 33 -7 7 -38 -68 -81 -72 -40 -80 -43 -103 -30 -37 19 -51 5 -91 -91
-28 -69 -34 -94 -30 -130 5 -41 3 -46 -21 -59 -15 -7 -54 -19 -87 -26 l-60
-13 85 4 85 4 -74 -20 c-76 -21 -221 -84 -221 -95 0 -3 9 -1 20 5 11 6 26 10
33 9 26 -3 38 1 31 13 -4 7 -3 8 4 4 6 -4 28 0 48 9 20 8 46 15 58 15 17 0 15
-4 -14 -21 -19 -12 -37 -25 -40 -30 -3 -5 -35 -18 -70 -29 -64 -20 -178 -77
-130 -64 14 4 38 13 53 21 43 21 44 9 2 -17 -46 -29 -38 -37 12 -12 21 10 52
22 68 26 29 7 28 6 -10 -20 -45 -30 -148 -124 -137 -124 4 -1 -4 -10 -17 -20
-31 -27 -20 -25 42 6 52 27 107 46 107 38 0 -2 -30 -17 -67 -34 -64 -29 -178
-108 -169 -117 2 -3 28 12 56 31 29 20 64 39 79 42 14 3 36 10 49 15 29 11 55
12 48 0 -3 -4 -23 -11 -43 -15 -21 -3 -56 -15 -78 -26 -40 -20 -28 -18 55 7
51 15 53 18 -62 -71 -93 -72 -112 -92 -50 -55 29 18 34 19 23 5 -8 -10 -36
-29 -63 -42 -26 -13 -48 -26 -48 -28 0 -8 58 0 71 10 23 18 129 67 135 62 10
-11 -8 -34 -49 -60 -44 -29 -113 -85 -87 -72 8 4 36 23 61 41 63 45 74 42 13
-3 -66 -49 -174 -156 -168 -165 2 -4 -16 -22 -41 -39 -25 -17 -45 -33 -45 -36
0 -3 3 -3 8 -1 141 86 177 107 186 107 6 0 -16 -28 -49 -62 -33 -34 -45 -49
-27 -35 64 51 53 27 -13 -29 -36 -31 -64 -59 -61 -62 4 -3 16 4 29 16 13 12
27 22 31 22 4 0 -26 -32 -66 -71 -50 -49 -59 -61 -28 -37 66 51 82 57 128 51
37 -5 40 -7 25 -18 -10 -7 -29 -16 -41 -20 -22 -6 -23 -5 -13 14 8 14 8 21 1
21 -5 0 -10 -5 -10 -12 0 -7 -12 -25 -27 -40 -15 -15 -22 -28 -16 -28 6 0 16
7 23 15 7 8 17 15 23 15 6 0 0 -11 -13 -25 -12 -13 -25 -23 -29 -22 -3 1 -15
-6 -26 -15 -11 -9 -31 -26 -45 -38 l-25 -21 30 17 c17 10 41 26 54 36 34 26
37 15 8 -24 -13 -18 -27 -40 -31 -48 -4 -8 1 -4 11 10 40 54 67 81 94 96 l30
15 -7 -28 c-4 -15 -9 -32 -13 -38 -3 -5 -6 -12 -6 -15 -1 -7 -53 -112 -65
-130 -6 -8 -17 -31 -25 -51 -14 -36 -16 -37 -82 -44 -37 -4 -84 -13 -103 -20
-54 -20 -177 -34 -320 -35 -47 -1 -125 -7 -175 -15 -49 -8 -142 -17 -205 -20
-152 -8 -285 -21 -395 -40 -52 -9 -174 -18 -289 -20 -109 -2 -226 -7 -260 -10
-192 -20 -222 -23 -229 -18 -4 2 -22 0 -40 -6 -48 -15 -169 -35 -196 -33 -14
1 -49 -7 -80 -19 -30 -11 -73 -21 -95 -23 -23 -1 -52 -7 -66 -13 -14 -5 -59
-20 -100 -33 -41 -12 -85 -26 -98 -31 -13 -5 -30 -9 -38 -9 -8 0 -34 -9 -56
-20 -25 -12 -62 -20 -94 -20 -28 0 -68 -7 -87 -15 -20 -8 -46 -15 -59 -14 -13
0 -59 -9 -103 -21 -44 -11 -102 -23 -130 -26 -67 -7 -125 -18 -215 -42 -41
-11 -102 -25 -135 -31 -33 -5 -94 -19 -135 -30 -41 -12 -115 -24 -165 -27 -49
-3 -130 -17 -180 -30 -62 -17 -117 -24 -177 -24 -48 0 -120 -4 -160 -10 -40
-5 -140 -16 -223 -25 -82 -9 -179 -21 -215 -27 -36 -7 -215 -13 -400 -15 -184
-2 -364 -4 -400 -5 -74 -2 -287 9 -298 15 -4 3 -119 8 -257 12 -137 4 -263 8
-280 10 -94 7 -171 19 -255 40 -52 13 -142 33 -200 45 -107 21 -239 61 -275
84 -11 6 -49 20 -85 30 -233 65 -497 222 -583 347 l-39 57 17 58 c25 87 69
168 155 284 90 123 126 176 170 250 39 66 80 171 80 205 0 35 -35 68 -63 59
-55 -16 -148 -85 -257 -190 -222 -214 -335 -426 -347 -649 -7 -121 14 -214 76
-342 42 -86 64 -117 143 -200 161 -169 315 -292 453 -361 28 -14 85 -45 129
-69 118 -67 202 -108 291 -141 135 -50 328 -118 375 -132 25 -7 72 -21 105
-31 33 -10 89 -25 125 -34 36 -8 97 -24 135 -35 39 -11 113 -29 165 -40 52
-11 122 -27 155 -35 33 -8 103 -24 155 -36 52 -11 102 -22 110 -24 8 -2 78
-17 155 -34 77 -16 167 -36 200 -44 223 -56 498 -105 705 -127 148 -15 579
-95 675 -125 148 -45 279 -84 380 -110 140 -37 234 -67 351 -111 100 -38 102
-40 107 -74 2 -20 18 -69 35 -111 29 -74 59 -220 48 -238 -3 -4 -27 -14 -53
-21 -131 -37 -205 -114 -253 -265 -77 -242 -116 -311 -200 -355 -52 -27 -159
-129 -184 -175 -20 -38 -21 -53 -21 -330 -1 -236 -4 -304 -18 -365 -21 -95
-49 -187 -80 -270 -14 -36 -31 -81 -38 -100 -14 -41 -36 -89 -49 -110 -5 -8
-27 -52 -49 -98 -36 -75 -60 -104 -138 -172 -24 -20 -26 -59 -5 -108 16 -36
26 -47 44 -47 13 0 40 -4 61 -9 25 -5 53 -4 76 2 39 12 118 83 131 118 9 24
66 54 102 54 15 0 54 -30 118 -91 52 -50 106 -96 120 -104 70 -37 197 -30 241
14 25 25 31 27 93 23 48 -3 72 0 89 11 14 9 35 13 52 10 28 -6 28 -6 22 35 -3
24 -17 57 -35 79 -16 21 -37 52 -46 70 -9 17 -24 38 -35 45 -36 26 -161 227
-161 260 0 11 -13 43 -30 70 -16 26 -30 58 -30 71 0 12 -7 44 -15 70 -24 78
-6 328 29 412 8 18 33 53 55 76 23 24 41 51 41 60 0 10 16 36 35 59 19 23 38
54 41 69 3 14 9 33 13 41 13 25 105 49 203 54 119 6 284 37 329 62 56 31 91
63 121 110 15 25 28 48 28 51 0 4 18 43 39 88 22 44 47 100 56 125 30 84 93
280 100 310 l7 30 66 -66 c74 -73 197 -140 312 -169 65 -16 189 -66 265 -107
22 -11 78 -41 125 -66 47 -24 103 -57 125 -72 22 -15 51 -31 65 -35 14 -4 30
-11 35 -15 19 -15 147 -60 172 -60 35 0 63 -18 63 -39 0 -34 -39 -145 -81
-228 -48 -97 -68 -174 -68 -263 -1 -76 13 -120 79 -255 128 -264 157 -361 145
-490 -8 -77 -8 -118 -3 -167 1 -13 -1 -36 -5 -52 -8 -29 -8 -29 15 -14 12 8
34 37 47 64 l24 48 18 -45 c11 -26 16 -57 12 -76 -11 -68 49 -122 196 -177 47
-18 110 -48 138 -68 87 -60 190 -62 246 -7 l29 29 46 -17 c36 -12 92 -17 235
-20 205 -4 241 3 267 52 10 19 22 25 47 25 32 0 46 21 23 35 -5 3 -10 15 -10
26 0 29 -69 100 -125 126 -27 13 -65 32 -84 44 -18 11 -52 22 -75 25 -60 7
-68 9 -99 22 -16 7 -34 12 -40 13 -7 0 -25 9 -42 19 -16 11 -46 27 -65 36 -36
18 -109 71 -123 89 -4 5 -10 22 -14 38 -3 15 -10 27 -14 27 -5 0 -36 27 -68
60 -32 33 -64 60 -70 60 -6 0 -11 7 -11 15 0 8 -9 23 -20 32 -11 10 -20 24
-20 31 0 8 -7 26 -15 40 -21 39 -47 114 -46 137 0 11 -6 29 -13 40 -7 11 -16
47 -20 80 -4 33 -15 76 -25 96 -13 23 -16 41 -10 50 5 8 9 30 9 50 0 23 7 42
20 54 16 15 20 31 20 89 0 184 52 320 181 476 38 47 60 55 194 75 22 3 51 10
65 14 14 5 61 17 105 26 149 33 229 55 239 65 6 6 19 10 29 10 50 0 300 112
382 171 l40 28 28 -32 c15 -18 33 -44 38 -59 10 -25 82 -88 101 -88 5 0 4 9
-2 21 -10 18 -20 79 -21 132 0 11 7 30 16 43 14 22 24 25 68 24 67 -1 137 10
137 20 0 14 -102 57 -152 64 -27 4 -48 11 -48 17 0 5 4 9 9 9 14 0 183 195
206 238 11 21 26 44 33 52 40 47 132 171 132 177 0 5 15 32 34 60 19 29 39 67
45 86 7 19 22 44 34 56 l23 21 21 -48 c11 -26 23 -65 27 -87 8 -43 45 -113 71
-135 25 -20 44 -64 55 -121 6 -29 19 -70 30 -93 10 -23 24 -60 30 -84 6 -24
17 -45 25 -48 7 -3 21 -24 29 -46 34 -84 59 -12 31 89 -26 90 -28 110 -14 119
7 4 14 3 16 -3 8 -22 29 -44 46 -47 9 -1 30 -15 47 -31 l30 -29 0 30 c0 19
-21 60 -60 119 -34 50 -70 104 -81 120 -10 17 -27 54 -35 83 -9 30 -27 79 -41
109 l-25 55 21 71 c12 40 21 93 21 118 0 25 9 81 20 123 18 73 20 132 4 158
-4 6 -11 51 -15 99 -6 61 -16 103 -33 137 l-24 48 80 75 c44 41 91 81 105 90
45 30 564 534 629 611 69 83 215 247 265 299 30 31 77 83 104 116 28 33 82 96
121 140 69 77 146 200 159 255 5 19 27 41 74 72 65 42 109 93 130 148 7 17 47
51 124 102 63 42 118 76 121 76 3 0 52 28 109 63 56 35 162 96 235 137 139 77
174 109 186 170 8 42 -20 233 -40 272 -18 34 -56 60 -76 53 -10 -4 -23 5 -37
24 -13 18 -27 28 -36 25 -8 -3 -31 8 -52 25 -36 30 -70 44 -45 19 20 -20 13
-30 -10 -14 -35 25 -38 19 -13 -27 13 -23 27 -61 31 -85 l7 -42 -36 15 c-45
19 -48 19 -41 0 5 -13 2 -14 -21 -5 -34 13 -42 6 -24 -17 8 -11 3 -9 -11 4
-29 25 -99 57 -108 49 -3 -3 3 -16 14 -27 l19 -22 -32 17 c-18 9 -40 16 -49
16 -14 0 -12 -5 8 -32 24 -32 68 -111 68 -123 0 -3 -14 2 -31 10 -36 19 -49
13 -26 -13 26 -29 20 -32 -20 -11 -47 24 -71 26 -53 4 16 -20 12 -19 -35 5
-47 24 -55 19 -29 -18 37 -50 38 -56 3 -30 -36 28 -89 52 -97 44 -2 -3 10 -22
27 -43 17 -21 31 -45 31 -54 0 -19 -39 -32 -65 -23 -9 4 -20 2 -24 -4 -4 -7
-60 -12 -151 -13 -164 -2 -166 -3 -343 -88 -142 -68 -147 -68 -260 -9 -128 69
-259 259 -272 398 -6 62 -5 68 31 127 21 35 40 61 42 58 3 -2 12 10 21 28 11
22 22 31 35 29 11 -2 15 1 11 8 -9 14 21 60 40 60 8 0 14 3 13 8 -3 11 25 52
36 52 5 0 20 -10 33 -22 19 -18 23 -19 23 -5 0 9 -5 27 -11 40 -13 28 2 67 26
67 7 0 13 8 12 18 -1 15 30 72 39 72 2 0 20 -15 40 -32 l37 -33 -6 34 c-4 19
-14 47 -22 64 -11 21 -12 34 -4 48 10 19 11 19 42 -2 18 -12 49 -38 70 -58 36
-34 37 -34 37 -11 0 26 -47 104 -83 138 -26 24 -26 69 -2 78 9 4 11 18 8 45
-7 46 1 48 39 12 25 -24 28 -25 28 -7 0 11 -11 36 -25 56 -36 53 -32 117 5 73
35 -43 34 6 -1 57 -11 14 -19 41 -19 58 l0 32 35 -26 c54 -41 45 -8 -21 81
-15 19 -21 42 -21 73 0 49 -7 83 -29 147 -15 42 -58 73 -102 73 -12 0 -33 5
-48 10 -49 19 -354 33 -394 18z m-1573 -1778 c-1 -18 -49 -44 -83 -45 -6 0
-18 -5 -25 -11 -29 -23 -43 -26 -24 -5 12 12 31 23 43 26 13 2 37 16 53 30 37
30 38 30 36 5z m-127 -260 c-8 -6 -24 -15 -35 -21 -16 -8 -15 -6 4 10 13 12
28 21 35 21 6 0 4 -5 -4 -10z m-20 -145 c0 -2 -12 -16 -27 -31 -16 -15 -20
-22 -10 -15 9 8 17 9 17 4 0 -6 -29 -22 -64 -37 -35 -15 -74 -38 -87 -52 -12
-13 -26 -24 -31 -24 -13 0 84 88 139 125 46 32 63 41 63 30z m-84 -160 c-11
-8 -24 -15 -30 -15 -5 0 -1 7 10 15 10 8 24 14 29 14 6 0 1 -6 -9 -14z m-1
-45 c-9 -15 -65 -52 -65 -43 0 4 15 18 33 30 37 25 40 27 32 13z m-15 -80
c-20 -13 -43 -13 -35 0 3 6 16 10 28 10 18 0 19 -2 7 -10z m-55 -10 c-3 -5
-12 -10 -18 -10 -7 0 -6 4 3 10 19 12 23 12 15 0z m51 -15 c-11 -8 -29 -15
-40 -14 -15 0 -11 4 14 14 45 17 49 17 26 0z"/>
</g>
</svg>
