<?xml version="1.0" standalone="no"?>
<!DOCTYPE svg PUBLIC "-//W3C//DTD SVG 20010904//EN"
 "http://www.w3.org/TR/2001/REC-SVG-20010904/DTD/svg10.dtd">
<svg version="1.0" xmlns="http://www.w3.org/2000/svg"
 width="1280.000000pt" height="796.000000pt" viewBox="0 0 1280.000000 796.000000"
 preserveAspectRatio="xMidYMid meet">
<metadata>
Created by potrace 1.15, written by Peter Selinger 2001-2017
</metadata>
<g transform="translate(0.000000,796.000000) scale(0.100000,-0.100000)"
fill="#8bc34a" stroke="none">
<path d="M4898 7949 c-187 -22 -439 -108 -605 -208 -200 -121 -302 -186 -358
-231 -71 -56 -187 -176 -267 -275 -31 -38 -86 -105 -121 -147 -158 -187 -294
-401 -432 -683 -113 -230 -252 -574 -303 -750 -3 -11 -53 -74 -111 -140 -191
-216 -292 -357 -482 -670 -113 -188 -219 -398 -270 -535 -39 -106 -26 -101
-197 -65 -145 32 -360 104 -461 155 -65 33 -84 49 -127 107 -207 277 -312 527
-344 818 -18 158 0 556 30 675 38 151 123 301 244 430 64 68 130 99 449 206
241 81 254 84 341 84 87 0 96 -2 191 -46 159 -73 143 -70 224 -45 87 27 115
50 109 94 -3 18 -8 39 -12 48 -6 13 1 17 39 22 26 2 54 12 63 21 17 16 29 118
19 158 -11 44 -67 114 -125 160 -41 31 -61 55 -65 75 -3 16 -21 51 -39 78 -86
129 -382 199 -731 175 -162 -12 -202 -23 -352 -98 -289 -144 -553 -384 -757
-688 -218 -326 -370 -715 -433 -1108 -15 -90 -14 -110 0 -240 85 -746 236
-1237 503 -1642 65 -97 291 -327 437 -444 308 -245 638 -386 995 -425 62 -7
68 -10 132 -70 l68 -63 -24 -93 c-14 -52 -38 -137 -55 -189 -111 -356 -136
-440 -167 -560 -19 -75 -34 -160 -34 -192 0 -35 -8 -75 -21 -105 -38 -89 -43
-188 -20 -371 28 -218 27 -245 -8 -324 -17 -36 -35 -94 -41 -129 l-11 -64 -57
-27 c-33 -15 -82 -29 -114 -32 -55 -4 -158 -48 -158 -67 0 -5 -12 -20 -26 -34
-16 -16 -24 -33 -21 -45 3 -11 -1 -24 -9 -31 -42 -35 19 -77 96 -66 l38 5 -14
-26 c-17 -32 -12 -40 32 -48 25 -5 47 -1 70 10 43 20 64 20 64 2 0 -19 72 -31
100 -16 38 20 124 43 152 41 39 -3 191 27 254 50 29 11 63 32 74 46 22 29 27
88 9 127 -11 22 -7 30 33 78 137 162 218 335 218 467 0 39 8 65 34 113 19 35
40 85 46 113 15 66 13 205 -3 282 -13 61 -13 65 13 130 15 38 74 163 130 278
56 116 111 233 121 260 11 30 23 49 31 47 165 -44 335 -84 418 -98 l105 -18
74 -68 c41 -37 78 -68 83 -68 4 0 8 -7 8 -17 0 -54 209 -266 362 -368 51 -33
64 -49 107 -132 28 -52 91 -157 142 -234 l92 -139 -17 -58 c-28 -102 -46 -253
-46 -399 0 -130 -2 -145 -25 -191 -13 -27 -30 -72 -36 -100 -6 -29 -15 -55
-21 -58 -5 -3 -41 -10 -80 -15 -94 -12 -138 -38 -165 -97 -11 -26 -21 -70 -22
-98 l-1 -51 46 -13 c34 -10 54 -11 75 -3 27 10 27 10 18 -14 -12 -31 -12 -29
7 -47 19 -20 74 -21 100 -1 24 18 54 19 54 1 0 -22 73 -31 107 -13 15 8 42 21
59 30 17 9 40 14 51 11 30 -8 125 13 214 47 75 29 77 31 99 81 27 64 38 161
20 183 -15 18 -5 65 14 65 7 0 25 9 39 20 30 24 53 26 61 5 17 -46 207 16 229
74 9 26 20 30 126 56 145 35 229 66 285 104 63 43 67 71 62 381 -6 369 -40
556 -197 1104 -40 138 -43 166 -15 166 7 0 103 29 212 64 162 53 406 120 410
113 15 -35 77 -255 88 -316 14 -70 22 -90 51 -122 27 -31 35 -48 35 -78 0 -59
25 -178 58 -278 26 -78 30 -106 35 -253 3 -91 13 -205 22 -255 25 -134 104
-438 119 -455 30 -34 48 -86 53 -155 l6 -73 -41 -26 c-23 -14 -47 -26 -53 -26
-6 0 -29 -10 -51 -23 -45 -24 -93 -109 -78 -136 4 -8 5 -31 3 -52 l-5 -37 57
-7 c36 -5 66 -3 81 4 34 15 36 14 24 -9 -17 -31 -3 -60 28 -61 49 -2 77 3 92
16 25 21 60 28 60 12 0 -15 29 -27 65 -27 11 0 49 15 85 33 48 23 69 41 80 64
8 18 21 33 28 33 7 0 70 14 140 31 158 38 275 96 292 143 32 90 18 244 -30
321 -15 24 -20 51 -20 106 -1 43 -8 91 -17 114 -10 26 -19 95 -24 195 -8 139
-25 263 -73 515 -8 44 -22 120 -31 168 -8 49 -22 106 -29 129 -14 39 -13 44
36 182 28 77 55 154 61 169 10 28 11 25 67 -80 223 -428 558 -800 964 -1072
323 -217 722 -397 1117 -505 177 -48 640 -97 1179 -126 222 -12 787 -30 932
-30 l97 0 21 58 c12 31 38 111 57 177 31 105 36 136 39 254 2 81 8 139 15 147
18 22 109 70 175 92 169 57 370 81 757 89 158 3 287 10 287 14 0 5 -3 9 -7 9
-5 0 -82 11 -173 25 -380 57 -655 77 -1036 77 -374 0 -444 -12 -580 -94 -46
-27 -54 -38 -89 -117 -21 -47 -41 -89 -44 -93 -3 -4 -65 0 -138 7 -358 38
-659 112 -997 247 l-128 52 -97 130 c-291 393 -539 773 -736 1131 -247 449
-498 1039 -544 1282 -29 151 -81 338 -131 465 -46 119 -184 402 -253 518 l-45
75 -5 135 c-4 78 -15 175 -27 230 -98 455 -384 1002 -757 1450 -108 129 -357
380 -478 481 -254 211 -394 302 -588 378 -402 157 -733 215 -1039 180z"/>
</g>
</svg>
