<?xml version="1.0" standalone="no"?>
<!DOCTYPE svg PUBLIC "-//W3C//DTD SVG 20010904//EN"
 "http://www.w3.org/TR/2001/REC-SVG-20010904/DTD/svg10.dtd">
<svg version="1.0" xmlns="http://www.w3.org/2000/svg"
 width="1280.000000pt" height="905.000000pt" viewBox="0 0 1280.000000 905.000000"
 preserveAspectRatio="xMidYMid meet">
<metadata>
Created by potrace 1.15, written by Peter Selinger 2001-2017
</metadata>
<g transform="translate(0.000000,905.000000) scale(0.100000,-0.100000)"
fill="#e91e63" stroke="none">
<path d="M10009 9045 c-4 -3 -83 -11 -175 -16 -324 -18 -359 -32 -536 -222
-101 -107 -118 -121 -194 -156 -135 -64 -240 -178 -232 -253 2 -25 9 -34 35
-42 25 -8 39 -24 58 -63 14 -28 33 -57 41 -64 13 -11 14 -6 9 42 -4 30 -8 60
-10 67 -10 31 13 6 44 -48 19 -33 38 -60 41 -60 4 0 5 32 2 70 -6 88 6 90 50
10 18 -33 36 -60 39 -60 3 0 4 34 1 75 -4 65 -2 75 12 75 9 0 16 -8 16 -17 1
-10 9 -33 19 -52 l18 -34 6 64 c5 44 13 68 25 77 15 12 18 9 27 -27 15 -58 21
-58 29 -1 5 39 11 50 25 50 13 0 21 -10 26 -32 l7 -33 9 33 c15 51 41 39 59
-28 l13 -45 12 35 13 35 11 -28 c6 -16 11 -36 11 -45 0 -9 4 -23 9 -30 6 -10
10 -3 15 22 8 43 26 38 26 -7 1 -18 7 -45 14 -62 l13 -30 7 53 c5 28 12 52 17
52 5 0 9 -6 9 -12 0 -26 43 -158 51 -158 5 0 9 29 9 64 0 36 4 67 9 70 5 3 16
-25 25 -62 23 -92 33 -106 41 -56 4 21 12 55 17 74 l11 35 9 -30 c19 -60 50
-135 58 -135 3 0 8 28 9 63 3 78 16 93 32 36 15 -55 29 -72 29 -37 0 35 18 81
29 74 4 -3 11 -23 15 -45 9 -59 21 -57 35 4 7 30 16 55 20 55 5 0 14 -20 21
-45 13 -48 30 -60 30 -22 1 12 7 36 14 52 12 27 14 28 21 10 3 -11 12 -31 17
-45 11 -25 11 -25 18 10 9 50 17 60 49 60 28 0 29 -1 41 -82 7 -51 8 -84 2
-86 -36 -12 -106 -69 -143 -115 -24 -31 -50 -56 -56 -56 -7 -1 -13 -7 -13 -14
0 -8 -9 -22 -19 -31 -18 -16 -20 -16 -35 6 l-16 22 0 -31 c0 -37 -19 -54 -34
-30 -9 14 -12 11 -21 -20 l-11 -38 -24 40 -25 40 -5 -48 c-3 -26 -9 -49 -15
-50 -5 -1 -21 18 -35 43 l-25 45 -5 -59 c-3 -33 -10 -61 -17 -63 -6 -3 -24 14
-39 36 -15 23 -29 41 -32 41 -3 0 -2 -22 1 -50 3 -27 2 -50 -2 -50 -5 0 -24
24 -42 52 l-34 53 -5 -70 -5 -70 -34 53 c-19 28 -36 52 -39 52 -3 0 -2 -29 1
-65 7 -71 -1 -76 -31 -22 l-17 32 -5 -50 -5 -50 -30 50 c-32 53 -41 47 -33
-21 5 -42 -15 -29 -34 22 -6 19 -15 34 -20 34 -4 0 -8 -26 -10 -57 l-3 -58
-21 39 -21 39 -7 -46 c-4 -26 -4 -51 -1 -57 3 -6 -1 -13 -9 -16 -9 -4 -16 -18
-16 -33 0 -59 98 -110 184 -96 22 4 70 21 106 37 38 17 98 34 145 40 148 20
223 45 402 139 209 108 315 145 454 159 124 13 201 33 251 66 21 13 42 24 47
24 24 0 110 -141 157 -257 71 -177 111 -407 122 -705 12 -288 -11 -465 -74
-590 -36 -72 -136 -173 -270 -274 -198 -149 -629 -432 -738 -484 -139 -66
-329 -129 -577 -189 -259 -64 -393 -108 -546 -181 -159 -76 -284 -162 -410
-283 -121 -117 -171 -177 -332 -401 -169 -234 -238 -315 -435 -512 -179 -178
-277 -264 -474 -412 -793 -598 -1915 -1057 -3147 -1287 -432 -80 -778 -124
-1275 -162 -292 -22 -1163 -25 -1445 -5 -395 28 -698 60 -1058 113 -285 41
-403 33 -297 -21 101 -52 779 -190 1270 -259 956 -135 2004 -147 2995 -36
1212 137 2392 447 3501 921 133 56 265 114 294 129 29 14 53 25 54 23 1 -2 -1
-120 -5 -263 -11 -381 -28 -454 -133 -560 -34 -34 -75 -83 -90 -108 -39 -67
-88 -200 -136 -367 -54 -192 -98 -326 -123 -375 -10 -22 -50 -72 -87 -110 -83
-86 -99 -129 -81 -216 10 -52 9 -60 -14 -114 -14 -32 -26 -76 -26 -99 0 -22
-2 -61 -5 -86 -3 -25 0 -58 6 -75 l11 -30 22 38 c11 20 25 37 29 37 21 0 1
-177 -39 -340 -9 -36 -19 -99 -23 -140 -7 -82 -17 -109 -55 -138 -31 -24 -23
-32 32 -32 52 0 113 29 141 66 l19 28 18 -37 c21 -44 68 -87 98 -88 12 -1 42
-2 67 -3 25 -1 82 -6 128 -11 79 -8 84 -7 108 16 36 33 109 34 154 0 l32 -23
-7 23 c-17 56 -48 101 -86 126 -34 23 -57 28 -147 36 -151 12 -149 12 -182 64
-25 39 -30 58 -30 107 0 34 -9 99 -20 146 -15 67 -20 123 -20 265 0 202 18
321 64 421 64 139 322 595 484 857 69 111 94 143 131 167 63 40 105 85 135
146 14 29 26 55 26 58 0 4 60 95 134 204 121 179 287 448 316 513 10 23 29 31
143 64 108 31 332 108 408 139 13 6 27 -12 66 -86 76 -145 160 -273 370 -569
200 -282 316 -463 341 -534 11 -29 15 -96 17 -245 2 -204 2 -206 49 -425 44
-202 48 -234 53 -390 3 -111 9 -183 18 -207 9 -23 12 -54 9 -85 -5 -38 -1 -60
20 -108 26 -58 61 -105 78 -105 4 0 5 20 1 45 -6 49 3 57 31 27 22 -25 101
-241 156 -427 46 -158 112 -222 214 -210 52 7 70 2 195 -52 9 -4 12 -2 7 5 -6
9 13 11 76 6 l83 -6 33 32 c33 31 36 32 113 28 43 -2 79 -2 79 0 0 2 -13 23
-30 47 -42 61 -103 89 -181 82 -32 -3 -62 -1 -65 4 -3 5 -36 9 -73 9 -134 0
-211 65 -286 242 -24 57 -67 146 -95 198 -88 160 -136 262 -157 330 -36 114
-55 531 -33 694 6 41 13 175 17 298 10 416 11 398 -30 546 -20 73 -53 219 -73
325 -89 483 -153 775 -219 1002 -7 22 22 49 394 373 l184 160 31 -76 c46 -113
149 -267 324 -483 47 -58 99 -132 117 -165 30 -56 37 -61 117 -101 83 -41 87
-44 101 -90 26 -80 28 -116 13 -199 -8 -43 -14 -95 -15 -115 0 -20 -5 -48 -11
-63 -13 -34 -13 -36 1 -36 6 0 30 19 54 43 48 46 54 65 76 225 6 50 15 92 19
92 21 0 55 -59 76 -131 13 -45 33 -92 43 -103 14 -14 21 -39 23 -76 l3 -55 33
68 c37 75 37 77 -4 208 -13 42 -35 93 -49 113 -14 20 -25 38 -25 40 0 10 87
-17 111 -34 15 -11 34 -20 41 -20 19 0 40 -23 71 -79 l25 -43 6 28 c3 16 2 44
-4 63 -5 19 -7 37 -5 41 8 13 -35 59 -79 85 -50 29 -111 49 -219 69 -100 20
-125 32 -231 118 -105 86 -132 124 -256 358 -51 96 -112 210 -137 253 -41 72
-45 86 -50 166 l-6 88 87 94 c48 52 102 113 119 136 18 23 35 43 38 43 3 0 53
-94 112 -208 127 -247 151 -275 254 -302 89 -23 226 -40 331 -40 74 0 197 -21
228 -39 65 -37 91 -62 102 -99 17 -57 15 -107 -8 -152 -11 -22 -20 -45 -20
-53 0 -7 -14 -33 -32 -56 -31 -43 -31 -43 -7 -36 52 16 119 56 135 81 10 14
19 49 21 77 7 80 10 84 39 56 37 -34 50 -66 58 -134 6 -54 4 -64 -19 -97 -29
-43 -27 -45 18 -22 51 26 86 65 98 107 9 35 7 46 -25 110 -19 40 -44 87 -56
104 -25 38 -18 41 28 13 48 -29 122 -188 122 -260 0 -35 4 -49 11 -44 18 11
59 107 59 139 -1 71 -107 227 -180 262 -25 11 -87 42 -139 68 -72 36 -136 57
-275 91 -195 49 -287 78 -412 131 l-80 34 -66 177 c-36 97 -78 214 -93 260
l-27 84 28 81 29 82 -3 253 c-2 232 0 266 22 395 36 203 44 295 58 629 13 339
4 529 -37 752 -61 333 -195 667 -377 944 -194 294 -343 435 -543 511 -76 29
-106 35 -196 39 l-107 4 45 44 c69 65 57 75 -67 59 -73 -10 -118 9 -161 68
-47 62 -87 87 -151 94 -29 3 -56 2 -59 -2z"/>
</g>
</svg>
