<?xml version="1.0" standalone="no"?>
<!DOCTYPE svg PUBLIC "-//W3C//DTD SVG 20010904//EN"
 "http://www.w3.org/TR/2001/REC-SVG-20010904/DTD/svg10.dtd">
<svg version="1.0" xmlns="http://www.w3.org/2000/svg"
 width="1280.000000pt" height="950.000000pt" viewBox="0 0 1280.000000 950.000000"
 preserveAspectRatio="xMidYMid meet">
<metadata>
Created by potrace 1.15, written by Peter Selinger 2001-2017
</metadata>
<g transform="translate(0.000000,950.000000) scale(0.100000,-0.100000)"
fill="#4caf50" stroke="none">
<path d="M2570 9485 c-199 -45 -351 -148 -485 -330 -94 -126 -111 -169 -119
-286 -17 -265 -99 -482 -268 -711 -84 -115 -315 -342 -558 -550 -283 -242
-420 -369 -525 -488 -233 -264 -362 -480 -469 -790 -62 -177 -84 -270 -96
-410 -6 -63 -18 -153 -26 -200 -84 -486 63 -1013 417 -1485 441 -589 1141
-1008 1894 -1134 513 -86 1049 -32 1531 154 72 28 199 64 337 95 122 28 230
53 239 56 15 5 16 2 6 -26 -6 -18 -8 -56 -5 -86 5 -46 3 -54 -13 -59 -36 -11
-137 -93 -158 -126 -11 -19 -28 -79 -38 -134 -26 -141 -26 -558 0 -725 24
-154 60 -333 91 -443 14 -53 21 -93 15 -97 -5 -3 -114 -18 -242 -34 -1121
-135 -2073 -275 -2633 -387 -255 -51 -331 -76 -200 -64 364 31 2251 146 2980
181 61 2 127 7 148 10 l38 4 -7 -172 -7 -172 -44 -60 c-24 -33 -49 -79 -56
-104 -8 -31 -20 -48 -39 -58 -14 -8 -30 -24 -33 -36 -4 -13 -15 -32 -25 -43
-20 -22 -43 -136 -33 -163 13 -38 22 -41 65 -26 56 19 58 18 47 -18 -10 -37
-5 -74 15 -100 12 -16 17 -16 78 6 l66 24 4 -50 c4 -32 13 -57 26 -70 l20 -21
55 32 c30 17 60 38 67 46 8 10 30 15 63 15 69 0 122 18 138 46 22 43 61 32
111 -30 24 -30 52 -70 63 -88 11 -17 39 -45 62 -62 41 -28 43 -29 62 -12 10 9
34 45 52 79 18 34 50 84 71 110 21 27 38 53 38 59 0 6 15 31 34 57 50 67 86
177 86 260 0 15 -36 154 -79 307 -44 153 -77 281 -75 283 3 3 147 13 322 23
867 48 1765 108 1995 134 81 9 150 15 152 12 12 -11 -19 -134 -51 -204 -102
-225 -161 -468 -210 -861 -3 -24 -7 -43 -10 -43 -3 0 -36 5 -75 11 -84 13
-149 -4 -194 -51 -16 -17 -33 -30 -38 -30 -5 0 -54 -21 -108 -46 -112 -53
-112 -56 -23 -100 55 -27 139 -35 209 -20 17 3 36 2 44 -3 11 -7 8 -16 -13
-44 -22 -28 -96 -195 -96 -215 0 -8 94 9 127 23 17 7 52 32 76 54 57 53 72 52
42 -1 -12 -24 -26 -54 -30 -67 -7 -24 -7 -24 51 -19 49 5 89 17 147 46 5 2 1
-10 -7 -27 l-17 -31 58 0 c77 0 127 15 167 50 l33 29 170 4 171 3 51 33 c28
18 80 65 116 103 l65 70 0 93 c0 84 -2 96 -24 122 l-25 29 45 208 44 208 84
122 c182 265 269 446 295 615 6 35 12 65 14 67 2 2 104 15 228 29 229 27 551
70 603 81 l29 6 -8 -128 c-4 -71 -10 -132 -13 -136 -4 -4 -25 -3 -46 2 -49 11
-97 -7 -141 -51 -16 -17 -63 -56 -104 -87 l-75 -56 40 -19 c32 -15 55 -17 127
-13 48 3 87 4 87 1 0 -2 -9 -23 -21 -45 -12 -22 -31 -71 -44 -108 -19 -57 -21
-68 -8 -70 27 -7 99 28 133 63 19 19 37 35 41 35 5 0 -3 -25 -16 -55 l-25 -55
38 0 c20 0 56 9 80 20 l42 19 -6 -24 c-6 -23 -3 -25 27 -25 53 0 103 18 129
45 17 18 34 25 60 25 20 0 59 7 86 15 27 8 81 15 119 14 85 -2 185 25 215 56
44 47 32 127 -42 282 -10 21 -8 109 8 344 l6 85 72 18 c102 26 377 119 476
160 46 20 86 36 87 36 2 0 3 -33 3 -74 0 -93 18 -271 31 -312 5 -17 34 -59 64
-94 30 -35 59 -78 65 -96 7 -19 16 -34 21 -34 5 0 9 -5 9 -11 0 -7 -14 -9 -37
-6 -51 6 -96 -22 -117 -72 -8 -22 -19 -42 -25 -45 -5 -3 -28 -33 -50 -66 -41
-60 -41 -60 -19 -69 49 -18 86 -21 129 -11 24 7 56 14 71 17 l28 5 -7 -79 c-3
-44 -3 -101 1 -127 7 -46 9 -47 34 -41 36 9 79 51 94 92 18 49 26 40 25 -27 0
-33 2 -63 5 -66 9 -8 80 24 105 48 l23 21 0 -30 c0 -30 0 -30 43 -22 64 12 76
19 94 53 19 38 30 46 64 46 14 0 47 11 73 25 32 17 65 26 99 27 64 1 146 35
175 73 39 50 28 92 -53 200 l-55 73 27 53 28 53 -1 300 c-1 221 -7 360 -22
521 l-20 220 36 30 c138 113 330 284 467 414 l159 152 49 157 c63 206 121 429
153 599 23 118 27 164 27 323 1 168 -2 194 -25 281 -52 192 -121 334 -321 659
-238 387 -305 497 -384 635 -73 128 -82 150 -107 260 -77 344 -203 709 -333
968 -116 233 -269 426 -361 458 -18 6 -50 36 -78 72 -253 327 -595 635 -948
856 -700 439 -1473 564 -2116 342 -513 -176 -932 -552 -1234 -1106 -64 -118
-67 -122 -153 -185 -557 -409 -950 -787 -1185 -1140 -89 -135 -203 -363 -253
-510 -37 -111 -42 -118 -119 -204 -98 -107 -297 -293 -461 -430 -496 -413
-1083 -753 -1590 -921 -261 -87 -487 -126 -726 -126 -248 0 -400 33 -619 136
-74 34 -146 66 -160 70 -40 12 -141 65 -201 106 -226 153 -376 401 -444 738
-34 167 -44 279 -46 516 -1 242 7 282 86 419 80 141 182 265 495 601 470 505
678 778 845 1105 112 221 173 389 224 616 28 123 31 131 69 165 72 64 215 129
285 129 31 0 76 -20 122 -56 17 -13 118 -122 225 -243 215 -244 199 -233 379
-275 62 -15 116 -34 135 -48 137 -102 313 -201 382 -214 32 -6 152 16 206 37
34 14 48 54 48 136 l0 64 -130 182 c-71 100 -128 188 -125 195 10 27 -18 101
-56 147 -68 82 -178 162 -354 258 -93 51 -176 94 -185 97 -8 3 -33 17 -55 31
-245 160 -734 274 -955 224z m6437 -6173 c-2 -103 -1 -110 31 -175 35 -71 112
-162 181 -212 22 -16 41 -33 41 -36 0 -12 -327 -166 -335 -157 -2 2 -18 57
-34 121 -32 123 -93 284 -166 442 -24 52 -43 95 -42 96 8 3 251 27 284 28 l41
1 -1 -108z m-2092 -88 c82 -19 150 -27 268 -31 l158 -6 299 -388 c164 -214
295 -391 291 -393 -4 -3 -322 -84 -707 -180 -384 -97 -796 -202 -914 -235
-119 -33 -260 -67 -315 -75 -279 -42 -729 -96 -735 -89 -9 11 -61 511 -60 588
0 89 -25 189 -64 261 l-35 64 46 27 c91 53 209 148 320 256 l112 109 80 -11
c118 -17 243 1 491 70 98 27 110 29 180 19 160 -22 364 -8 429 30 23 14 35 13
156 -16z"/>
</g>
</svg>
