<?xml version="1.0" standalone="no"?>
<!DOCTYPE svg PUBLIC "-//W3C//DTD SVG 20010904//EN"
 "http://www.w3.org/TR/2001/REC-SVG-20010904/DTD/svg10.dtd">
<svg version="1.0" xmlns="http://www.w3.org/2000/svg"
 width="1280.000000pt" height="640.000000pt" viewBox="0 0 1280.000000 640.000000"
 preserveAspectRatio="xMidYMid meet">
<metadata>
Created by potrace 1.15, written by Peter Selinger 2001-2017
</metadata>
<g transform="translate(0.000000,640.000000) scale(0.100000,-0.100000)"
fill="#2196f3" stroke="none">
<path d="M11654 5579 c-31 -7 -67 -32 -137 -92 -86 -74 -104 -85 -174 -106
-313 -92 -563 -223 -1123 -591 -230 -151 -294 -199 -480 -360 -290 -252 -421
-356 -575 -457 -71 -47 -163 -108 -203 -135 -192 -130 -531 -286 -767 -352
-208 -59 -574 -116 -742 -116 -199 0 -418 47 -601 130 -48 21 -121 51 -162 65
-41 15 -200 88 -354 162 -305 148 -448 204 -595 233 -96 18 -158 36 -495 144
-270 86 -367 104 -623 117 -443 21 -672 -15 -1327 -210 -127 -38 -265 -79
-306 -90 -42 -11 -123 -39 -180 -62 -276 -107 -583 -194 -960 -269 -250 -50
-636 -111 -760 -120 -63 -5 -184 -20 -269 -34 -85 -14 -195 -29 -245 -32 -91
-6 -232 8 -250 26 -9 9 1 13 79 28 30 6 40 13 40 27 0 24 -44 34 -161 34 -142
1 -247 -52 -272 -137 -18 -58 -15 -76 15 -104 112 -102 281 -162 496 -174 56
-3 131 -11 167 -19 36 -7 97 -16 135 -20 83 -8 247 -33 272 -42 10 -3 69 -28
131 -55 62 -27 130 -52 150 -55 20 -4 51 -16 67 -29 17 -12 67 -37 113 -55 62
-24 95 -45 135 -83 29 -28 97 -75 152 -105 120 -66 153 -89 134 -95 -122 -37
-228 -95 -398 -220 -141 -104 -213 -132 -436 -176 -237 -46 -320 -73 -407
-133 -44 -30 -48 -35 -48 -74 0 -33 6 -48 31 -73 120 -119 485 -184 848 -150
188 17 585 90 666 122 65 25 292 152 332 184 24 20 53 58 69 90 17 34 32 53
40 50 7 -3 32 -10 56 -16 24 -7 90 -34 148 -62 235 -111 460 -189 760 -263
152 -37 459 -99 548 -111 28 -4 52 -10 52 -14 0 -9 -95 -91 -184 -159 -93 -70
-155 -100 -347 -166 -238 -82 -320 -124 -399 -204 -65 -66 -95 -113 -106 -169
-5 -25 0 -37 30 -70 66 -72 140 -95 368 -112 235 -17 525 14 812 87 115 29
156 45 235 90 348 201 549 382 662 596 l38 72 218 -3 c131 -3 252 1 303 8 97
13 258 63 348 109 34 17 74 31 90 31 37 0 255 -155 351 -249 142 -140 367
-200 596 -160 81 14 92 21 78 51 -9 20 -35 32 -144 67 -185 59 -291 111 -353
175 -74 74 -187 287 -186 350 0 14 20 35 58 63 31 24 95 72 142 108 47 37 135
90 195 120 133 64 399 162 561 205 532 142 1042 377 1474 679 69 48 159 110
200 138 171 115 383 297 776 667 256 241 391 358 539 466 254 185 508 344 590
370 22 7 92 34 155 60 63 26 139 53 169 60 l54 13 35 -42 c61 -74 128 -95 334
-106 64 -3 139 -12 165 -20 48 -14 147 -28 278 -40 39 -4 107 -15 151 -26 114
-27 147 -25 185 9 31 28 31 28 15 60 -9 17 -16 37 -16 44 0 15 -43 19 -56 6
-12 -13 -24 -9 -24 8 0 12 -6 15 -24 10 -16 -4 -26 -1 -30 9 -3 8 -12 15 -21
15 -8 0 -15 7 -15 15 0 13 -4 14 -21 5 -15 -8 -24 -8 -34 0 -8 7 -19 9 -24 6
-5 -4 -13 -2 -16 4 -10 16 15 41 34 36 9 -3 45 -8 81 -11 38 -4 70 -12 76 -20
6 -8 13 -12 16 -9 3 3 23 -2 44 -11 38 -15 38 -15 71 17 47 46 45 80 -9 130
-67 62 -175 142 -273 202 -49 30 -113 73 -141 96 -100 79 -178 106 -502 175
-68 14 -129 28 -135 29 -7 2 -31 0 -53 -5z"/>
</g>
</svg>
