<?xml version="1.0" standalone="no"?>
<!DOCTYPE svg PUBLIC "-//W3C//DTD SVG 20010904//EN"
 "http://www.w3.org/TR/2001/REC-SVG-20010904/DTD/svg10.dtd">
<svg version="1.0" xmlns="http://www.w3.org/2000/svg"
 width="703.000000pt" height="1280.000000pt" viewBox="0 0 703.000000 1280.000000"
 preserveAspectRatio="xMidYMid meet">
<metadata>
Created by potrace 1.15, written by Peter Selinger 2001-2017
</metadata>
<g transform="translate(0.000000,1280.000000) scale(0.100000,-0.100000)"
fill="#3f51b5" stroke="none">
<path d="M2865 12766 c-358 -80 -759 -217 -1093 -372 -118 -55 -142 -59 -245
-44 -73 11 -90 11 -142 -5 -144 -41 -303 -158 -345 -251 -11 -25 -29 -48 -42
-53 -13 -5 -64 -38 -114 -73 -49 -34 -126 -88 -169 -118 -302 -211 -431 -328
-523 -469 -30 -46 -74 -105 -98 -131 -24 -26 -53 -68 -65 -94 -59 -133 -17
-362 70 -381 53 -11 143 32 243 116 24 20 54 40 67 44 27 8 28 16 -15 -105
-18 -51 -27 -97 -28 -143 -1 -65 1 -70 32 -98 24 -22 42 -29 72 -29 83 0 152
49 231 166 50 74 63 83 149 99 19 4 50 15 67 26 22 12 73 22 159 31 113 11
133 10 192 -5 37 -10 91 -30 120 -44 103 -52 199 -186 236 -327 20 -77 51
-109 163 -162 102 -49 142 -87 182 -174 30 -65 40 -184 21 -258 -18 -74 -59
-169 -112 -263 -41 -75 -54 -89 -88 -103 -44 -17 -59 -39 -41 -60 8 -10 5 -19
-15 -37 -119 -112 -261 -340 -335 -541 -67 -182 -149 -551 -149 -672 0 -72
-15 -106 -54 -124 -42 -21 -93 3 -217 101 -212 169 -309 227 -375 227 -68 0
-145 -54 -273 -189 -126 -135 -142 -159 -134 -205 4 -22 -4 -41 -36 -87 -56
-80 -72 -129 -72 -219 1 -82 18 -159 55 -248 19 -45 29 -58 48 -60 32 -4 44
11 71 94 13 37 28 69 33 71 5 1 22 -27 38 -63 32 -71 79 -129 96 -119 5 3 10
20 10 36 0 17 7 62 15 102 9 40 18 83 21 95 4 20 7 22 19 12 8 -7 15 -18 15
-25 0 -13 47 -52 88 -74 29 -15 47 -3 55 37 4 20 -2 38 -24 69 -50 71 -80 147
-86 220 -7 84 12 114 81 132 64 16 129 -11 283 -116 146 -100 203 -127 244
-119 40 8 69 -22 69 -71 0 -55 18 -110 40 -126 17 -12 14 -16 -43 -46 -34 -19
-84 -47 -110 -64 -45 -28 -53 -29 -116 -24 -74 6 -156 -10 -222 -43 -36 -19
-99 -82 -99 -100 0 -5 -45 -60 -101 -122 -66 -74 -111 -134 -130 -175 -105
-226 -107 -539 -3 -662 13 -16 24 -38 24 -48 0 -24 30 -53 54 -53 21 0 31 24
20 48 -8 18 -10 52 -14 237 -1 78 2 131 10 150 l13 30 7 -25 c4 -14 21 -52 38
-85 49 -98 219 -253 279 -255 21 0 65 44 58 60 -3 8 -40 41 -81 73 -66 53 -88
78 -66 77 4 -1 32 -9 62 -20 70 -25 158 -27 167 -4 9 25 -7 45 -70 87 -49 33
-58 44 -71 90 -26 91 -28 138 -12 216 20 93 49 139 129 196 56 41 63 44 74 29
11 -15 15 -14 47 14 34 29 80 48 135 54 22 3 28 -5 54 -66 16 -39 40 -111 53
-160 13 -50 35 -134 49 -186 30 -113 39 -170 60 -395 17 -194 28 -273 55 -400
10 -49 26 -130 35 -180 50 -273 298 -715 401 -715 13 0 24 -4 24 -8 0 -10 -30
-66 -158 -301 -181 -332 -255 -510 -293 -704 -24 -123 -25 -233 -5 -567 33
-541 41 -1006 19 -1089 -14 -56 -10 -101 27 -310 6 -30 10 -60 10 -66 0 -13
-262 -359 -314 -413 -57 -62 -109 -85 -195 -87 -42 -2 -87 -6 -101 -9 -14 -4
-71 2 -128 14 -132 26 -163 25 -248 -4 -131 -44 -200 -93 -230 -163 -19 -44
-18 -49 14 -62 21 -9 41 -9 77 -1 36 8 56 8 77 -1 28 -11 37 -28 18 -30 -5 -1
-13 -2 -17 -3 -19 -3 -37 -22 -64 -64 -22 -34 -29 -58 -29 -93 0 -26 4 -50 9
-54 6 -3 36 5 68 17 34 13 80 22 113 22 48 1 66 -6 136 -47 101 -60 144 -68
186 -37 28 21 32 21 61 7 18 -9 82 -28 142 -43 106 -26 114 -27 175 -13 39 8
84 27 112 47 26 17 53 32 60 32 7 0 56 37 108 81 108 92 191 151 252 179 24
11 58 31 77 45 37 27 79 32 114 14 12 -7 54 -43 94 -80 91 -86 123 -103 182
-96 25 3 54 1 63 -4 15 -8 20 -1 33 43 43 144 -3 325 -110 431 -52 53 -51 67
9 108 41 28 52 50 37 78 -16 30 -13 57 12 109 68 137 91 341 93 817 1 384 5
416 65 584 17 47 38 106 47 131 8 25 24 56 34 69 10 13 18 28 18 33 0 6 35 65
79 132 88 136 161 268 161 290 0 24 62 64 137 90 39 13 83 32 97 42 25 16 28
16 43 1 14 -13 14 -21 5 -42 -7 -14 -12 -65 -12 -113 0 -48 -7 -195 -15 -327
-41 -672 -7 -895 177 -1186 59 -94 66 -110 128 -308 l43 -133 -29 -23 c-28
-22 -28 -22 -15 -78 23 -103 -21 -185 -92 -172 -46 9 -124 -8 -192 -41 -72
-36 -166 -132 -171 -175 -2 -18 -22 -60 -44 -93 -31 -45 -37 -62 -29 -73 9 -9
8 -21 -1 -42 -12 -29 -7 -51 10 -51 5 0 27 17 48 39 l38 39 75 -5 c84 -5 195
-26 284 -55 158 -50 324 -2 500 147 34 29 79 64 101 78 21 14 73 60 114 102
94 95 131 119 171 111 38 -7 168 -98 183 -127 16 -31 28 -27 48 12 14 25 18
58 18 131 l0 96 -62 64 c-35 35 -84 74 -109 85 -62 29 -76 63 -61 145 6 33 13
63 16 65 2 2 40 -25 84 -60 216 -174 420 -281 907 -474 447 -177 702 -318 956
-529 l76 -63 -18 -104 c-20 -119 -56 -202 -147 -343 -143 -220 -348 -381 -547
-432 -38 -10 -81 -25 -95 -34 -31 -20 -86 -35 -165 -43 -33 -4 -93 -16 -134
-27 -67 -18 -94 -19 -305 -14 -127 3 -251 8 -274 12 -39 5 -43 4 -40 -11 5
-29 69 -55 158 -65 46 -5 90 -16 99 -23 34 -29 655 -58 801 -37 41 6 118 15
170 20 52 5 129 19 170 30 41 11 92 20 113 20 21 0 59 11 85 24 26 13 87 36
137 51 66 20 100 37 132 65 24 21 76 57 116 80 112 66 174 116 202 164 18 31
34 45 54 49 40 8 82 47 129 119 35 53 44 78 57 158 9 52 18 165 22 250 5 144
4 164 -22 285 -33 157 -83 266 -185 401 -108 142 -316 331 -382 348 -15 3 -52
28 -82 54 -30 26 -110 95 -178 153 -68 59 -202 169 -298 245 -387 304 -516
439 -658 687 -49 87 -91 202 -111 307 -6 30 -25 170 -42 310 -31 247 -32 272
-39 825 -10 682 -20 779 -121 1205 -21 91 -39 177 -39 192 0 15 -10 48 -22 72
-20 43 -21 46 -5 64 17 19 14 52 -4 52 -5 0 -9 11 -9 25 0 15 -7 39 -15 56 -9
16 -38 89 -64 162 -62 169 -68 181 -113 249 -21 31 -75 132 -119 223 -88 181
-81 171 -370 475 -210 222 -321 439 -364 715 -8 50 -19 105 -24 123 -6 18 -13
84 -17 145 -7 123 -29 245 -79 442 -94 362 -225 665 -404 930 -37 55 -71 112
-75 127 -3 16 -20 49 -37 75 -34 54 -34 84 1 131 11 15 26 60 34 99 7 40 20
83 29 96 8 13 26 59 40 103 112 353 78 802 -95 1284 -27 75 -31 98 -32 195 0
118 15 187 59 275 24 47 222 257 262 279 16 8 41 8 97 0 41 -6 87 -8 101 -5
23 6 25 11 25 59 0 92 -66 194 -154 239 -77 40 -136 50 -311 54 -164 4 -175 3
-320 -30z"/>
</g>
</svg>
